<svg xmlns="http://www.w3.org/2000/svg" width="407" height="59" viewBox="0 0 407 59"><g fill="none" fill-rule="evenodd"><path fill="#00B140" d="M1.652,28.2658203 L8.458,28.2658203 C15.43,28.2658203 20.576,33.4118203 20.576,39.8858203 C20.576,46.3598203 15.43,51.5058203 8.458,51.5058203 L1.652,51.5058203 L1.652,28.2658203 Z M8.458,29.9258203 L3.312,29.9258203 L3.312,49.8458203 L8.458,49.8458203 C14.6,49.8458203 18.916,45.5298203 18.916,39.8858203 C18.916,34.2418203 14.6,29.9258203 8.458,29.9258203 Z M24.82,51.5058203 L24.82,35.5698203 L26.314,35.5698203 L26.314,51.5058203 L24.82,51.5058203 Z M24.488,29.9258203 C24.488,29.2618203 24.986,28.7638203 25.65,28.7638203 C26.314,28.7638203 26.812,29.2618203 26.812,29.9258203 C26.812,30.5898203 26.314,31.0878203 25.65,31.0878203 C24.986,31.0878203 24.488,30.5898203 24.488,29.9258203 Z M31.886,43.2058203 C31.886,46.8578203 34.708,49.6798203 37.696,49.6798203 C40.684,49.6798203 43.672,46.8578203 43.672,43.2058203 C43.672,39.5538203 40.684,36.7318203 37.696,36.7318203 C34.708,36.7318203 31.886,39.5538203 31.886,43.2058203 Z M43.672,50.5098203 L43.672,47.8538203 C43.672,47.8538203 41.846,51.1738203 37.696,51.1738203 C33.878,51.1738203 30.392,47.6878203 30.392,43.2058203 C30.392,38.7238203 33.878,35.2378203 37.696,35.2378203 C41.846,35.2378203 43.672,38.5578203 43.672,38.5578203 L43.672,35.5698203 L45.166,35.5698203 L45.166,50.5098203 C45.166,54.9918203 41.68,58.4778203 37.53,58.4778203 C33.214,58.4778203 31.222,55.1578203 31.222,55.1578203 L32.218,54.1618203 C32.218,54.1618203 34.044,56.9838203 37.53,56.9838203 C40.85,56.9838203 43.672,54.1618203 43.672,50.5098203 Z M50.572,51.5058203 L50.572,35.5698203 L52.066,35.5698203 L52.066,51.5058203 L50.572,51.5058203 Z M50.24,29.9258203 C50.24,29.2618203 50.738,28.7638203 51.402,28.7638203 C52.066,28.7638203 52.564,29.2618203 52.564,29.9258203 C52.564,30.5898203 52.066,31.0878203 51.402,31.0878203 C50.738,31.0878203 50.24,30.5898203 50.24,29.9258203 Z M58.8,34.2418203 L58.8,30.2578203 L60.128,30.2578203 L60.128,35.5698203 L63.78,35.5698203 L63.78,37.0638203 L60.128,37.0638203 L60.128,47.5218203 C60.128,49.3478203 61.124,50.3438203 62.618,50.3438203 C63.78,50.3438203 64.776,49.8458203 64.776,49.8458203 L64.776,51.3398203 C64.776,51.3398203 63.78,51.8378203 62.618,51.8378203 C60.128,51.8378203 58.634,50.3438203 58.634,47.5218203 L58.634,37.0638203 L55.48,37.0638203 L55.48,35.5698203 L57.638,35.5698203 C58.302,35.5698203 58.8,35.0718203 58.8,34.2418203 Z M71.676,42.5418203 L77.984,41.5458203 C77.984,38.7902203 76.0584,36.7318203 73.502,36.7318203 C70.5804,36.7318203 68.854,39.0558203 68.854,39.0558203 L67.858,38.0598203 C67.858,38.0598203 69.9164,35.2378203 73.502,35.2378203 C76.9216,35.2378203 79.478,37.9934203 79.478,41.5458203 L79.478,51.5058203 L77.984,51.5058203 L77.984,48.8498203 C77.984,48.8498203 76.158,51.8378203 72.174,51.8378203 C69.02,51.8378203 66.862,49.6798203 66.862,47.3558203 C66.862,44.8658203 68.688,43.0066203 71.676,42.5418203 Z M72.174,50.3438203 C75.494,50.3438203 77.984,47.8538203 77.984,44.5338203 L77.984,43.0398203 L72.008,44.0358203 C69.518,44.4342203 68.356,45.6958203 68.356,47.3558203 C68.356,48.8498203 69.85,50.3438203 72.174,50.3438203 Z M86.046,28.2658203 L86.046,51.5058203 L84.552,51.5058203 L84.552,28.2658203 L86.046,28.2658203 Z M109.308,45.3638203 C109.308,39.0558203 96.3600001,42.0438203 96.3600001,34.0758203 C96.3600001,30.7558203 99.1820001,27.9338203 103.664,27.9338203 C107.98,27.9338203 110.304,30.7558203 110.304,30.7558203 L109.142,31.9178203 C109.142,31.9178203 107.316,29.5938203 103.664,29.5938203 C100.012,29.5938203 98.0200001,31.5858203 98.0200001,34.0758203 C98.0200001,40.3838203 110.968,37.3958203 110.968,45.3638203 C110.968,49.0158203 108.146,51.8378203 103.332,51.8378203 C98.1860001,51.8378203 95.6960001,48.3518203 95.6960001,48.3518203 L96.8580001,47.1898203 C96.8580001,47.1898203 98.8500001,50.1778203 103.332,50.1778203 C107.316,50.1778203 109.308,48.1858203 109.308,45.3638203 Z M117.37,54.4938203 L118.532,51.5058203 L112.058,35.5698203 L113.718,35.5698203 L119.362,49.5138203 L125.006,35.5698203 L126.666,35.5698203 L119.03,54.4938203 C117.9012,57.3158203 116.706,58.4778203 114.382,58.4778203 C113.552,58.4778203 112.888,58.1458203 112.888,58.1458203 L112.888,56.6518203 C112.888,56.6518203 113.552,56.9838203 114.382,56.9838203 C115.876,56.9838203 116.706,56.1538203 117.37,54.4938203 Z M138.878,37.5618203 L137.716,38.7238203 C137.716,38.7238203 136.388,36.7318203 133.898,36.7318203 C131.574,36.7318203 130.246,38.0930203 130.246,39.5538203 C130.246,43.3718203 139.376,41.5458203 139.376,47.0238203 C139.376,49.6798203 137.218,51.8378203 133.732,51.8378203 C130.08,51.8378203 128.088,49.1818203 128.088,49.1818203 L129.25,48.0198203 C129.25,48.0198203 130.91,50.3438203 133.732,50.3438203 C136.388,50.3438203 137.882,48.8498203 137.882,47.0238203 C137.882,43.0398203 128.752,44.8658203 128.752,39.5538203 C128.752,37.3958203 130.91,35.2378203 133.898,35.2378203 C137.052,35.2378203 138.878,37.5618203 138.878,37.5618203 Z M144.782,34.2418203 L144.782,30.2578203 L146.11,30.2578203 L146.11,35.5698203 L149.762,35.5698203 L149.762,37.0638203 L146.11,37.0638203 L146.11,47.5218203 C146.11,49.3478203 147.106,50.3438203 148.6,50.3438203 C149.762,50.3438203 150.758,49.8458203 150.758,49.8458203 L150.758,51.3398203 C150.758,51.3398203 149.762,51.8378203 148.6,51.8378203 C146.11,51.8378203 144.616,50.3438203 144.616,47.5218203 L144.616,37.0638203 L141.462,37.0638203 L141.462,35.5698203 L143.62,35.5698203 C144.284,35.5698203 144.782,35.0718203 144.782,34.2418203 Z M167.452,44.2018203 L154.006,44.2018203 C154.172,47.5218203 156.994,50.3438203 160.314,50.3438203 C163.8,50.3438203 165.626,47.5550203 165.626,47.5550203 L166.622,48.5178203 C166.622,48.5178203 164.464,51.8378203 160.314,51.8378203 C156.164,51.8378203 152.512,48.1858203 152.512,43.5378203 C152.512,38.8898203 156.164,35.2378203 160.148,35.2378203 C164.132,35.2378203 167.452,38.5578203 167.452,43.5378203 L167.452,44.2018203 Z M160.148,36.7318203 C156.994,36.7318203 154.172,39.5538203 154.006,42.7078203 L165.958,42.7078203 C165.792,39.2218203 163.302,36.7318203 160.148,36.7318203 Z M183.150007,38.8897999 C183.153356,38.8798658 184.384196,35.2378203 188.628,35.2378203 C191.9148,35.2378203 194.604,37.7278203 194.604,42.0438203 L194.604,51.5058203 L193.11,51.5058203 L193.11,42.0438203 C193.11,38.7238203 191.118,36.7318203 188.628,36.7318203 C185.972,36.7318203 183.814,38.8898203 183.814,42.5418203 L183.814,51.5058203 L182.32,51.5058203 L182.32,42.0438203 C182.32,38.7238203 180.328,36.7318203 177.838,36.7318203 C175.182,36.7318203 173.024,38.8898203 173.024,42.5418203 L173.024,51.5058203 L171.53,51.5058203 L171.53,35.5698203 L173.024,35.5698203 L173.024,37.8938203 C173.024,37.8938203 174.352,35.2378203 177.838,35.2378203 C181.817227,35.2378203 183.146814,38.8810756 183.149994,38.8898046 L183.150007,38.8897999 Z M208.808,37.5618203 L207.646,38.7238203 C207.646,38.7238203 206.318,36.7318203 203.828,36.7318203 C201.504,36.7318203 200.176,38.0930203 200.176,39.5538203 C200.176,43.3718203 209.306,41.5458203 209.306,47.0238203 C209.306,49.6798203 207.148,51.8378203 203.662,51.8378203 C200.01,51.8378203 198.018,49.1818203 198.018,49.1818203 L199.18,48.0198203 C199.18,48.0198203 200.84,50.3438203 203.662,50.3438203 C206.318,50.3438203 207.812,48.8498203 207.812,47.0238203 C207.812,43.0398203 198.682,44.8658203 198.682,39.5538203 C198.682,37.3958203 200.84,35.2378203 203.828,35.2378203 C206.982,35.2378203 208.808,37.5618203 208.808,37.5618203 Z M223.105994,39.3878148 C223.100693,39.3828013 219.454,35.932945 219.454,33.0798203 C219.454,30.2578203 221.778,27.9338203 224.6,27.9338203 C227.422,27.9338203 229.58,30.0918203 229.58,32.9138203 C229.58,36.4662203 225.098,39.3878203 225.098,39.3878203 L231.074,46.6918203 C231.074,46.6918203 232.734,44.1354203 232.734,40.2178203 L234.228,40.2178203 C234.228,44.8326203 232.07,47.8538203 232.07,47.8538203 C232.07,47.8538203 233.564,50.1778203 235.058,50.1778203 C235.556,50.1778203 236.054,50.0118203 236.054,50.0118203 L236.054,51.5058203 C236.054,51.5058203 235.556,51.6718203 235.058,51.6718203 C232.735933,51.6718203 231.076762,49.0202368 231.074004,49.0158258 C231.068669,49.0231199 229.010315,51.8378203 224.932,51.8378203 C221.114,51.8378203 218.458,49.1818203 218.458,46.1938203 C218.458,42.049343 223.093638,39.394892 223.105975,39.3878344 L223.105994,39.3878148 Z M230.078,47.8538203 L223.936,40.3838203 C223.936,40.3838203 219.952,43.0398203 219.952,46.1938203 C219.952,48.5178203 221.778,50.3438203 224.932,50.3438203 C228.3516,50.3438203 230.078,47.8538203 230.078,47.8538203 Z M220.948,33.0798203 C220.948,35.3706203 224.268,38.3918203 224.268,38.3918203 C224.268,38.3918203 228.086,35.6362203 228.086,32.9138203 C228.086,30.9218203 226.592,29.4278203 224.6,29.4278203 C222.608,29.4278203 220.948,31.0878203 220.948,33.0798203 Z M242.218,28.2658203 L259.15,28.2658203 L259.15,29.9258203 L251.514,29.9258203 L251.514,51.5058203 L249.854,51.5058203 L249.854,29.9258203 L242.218,29.9258203 L242.218,28.2658203 Z M273.686,44.2018203 L260.24,44.2018203 C260.406,47.5218203 263.228,50.3438203 266.548,50.3438203 C270.034,50.3438203 271.86,47.5550203 271.86,47.5550203 L272.856,48.5178203 C272.856,48.5178203 270.698,51.8378203 266.548,51.8378203 C262.398,51.8378203 258.746,48.1858203 258.746,43.5378203 C258.746,38.8898203 262.398,35.2378203 266.382,35.2378203 C270.366,35.2378203 273.686,38.5578203 273.686,43.5378203 L273.686,44.2018203 Z M266.382,36.7318203 C263.228,36.7318203 260.406,39.5538203 260.24,42.7078203 L272.192,42.7078203 C272.026,39.2218203 269.536,36.7318203 266.382,36.7318203 Z M276.436,43.5378203 C276.436,38.8898203 280.088,35.2378203 284.238,35.2378203 C288.388,35.2378203 290.546,38.5578203 290.546,38.5578203 L289.384,39.5538203 C289.384,39.5538203 287.724,36.7318203 284.238,36.7318203 C280.918,36.7318203 277.93,39.7198203 277.93,43.5378203 C277.93,47.3558203 280.918,50.3438203 284.238,50.3438203 C287.724,50.3438203 289.384,47.5218203 289.384,47.5218203 L290.546,48.5178203 C290.546,48.5178203 288.388,51.8378203 284.238,51.8378203 C280.088,51.8378203 276.436,48.1858203 276.436,43.5378203 Z M295.786,28.2658203 L295.786,38.3918203 C295.786,38.3918203 297.28,35.2378203 301.264,35.2378203 C304.916,35.2378203 307.738,38.0598203 307.738,42.0438203 L307.738,51.5058203 L306.244,51.5058203 L306.244,42.0438203 C306.244,38.8898203 304.086,36.7318203 301.264,36.7318203 C298.276,36.7318203 295.786,39.2218203 295.786,42.5418203 L295.786,51.5058203 L294.292,51.5058203 L294.292,28.2658203 L295.786,28.2658203 Z M314.306,35.5698203 L314.306,38.3918203 C314.306,38.3918203 315.8,35.2378203 319.784,35.2378203 C323.436,35.2378203 326.258,38.0598203 326.258,42.0438203 L326.258,51.5058203 L324.764,51.5058203 L324.764,42.0438203 C324.764,38.8898203 322.606,36.7318203 319.784,36.7318203 C316.796,36.7318203 314.306,39.2218203 314.306,42.5418203 L314.306,51.5058203 L312.812,51.5058203 L312.812,35.5698203 L314.306,35.5698203 Z M330.004,43.5378203 C330.004,38.8898203 333.656,35.2378203 337.972,35.2378203 C342.288,35.2378203 345.94,38.8898203 345.94,43.5378203 C345.94,48.1858203 342.288,51.8378203 337.972,51.8378203 C333.656,51.8378203 330.004,48.1858203 330.004,43.5378203 Z M344.446,43.5378203 C344.446,39.7198203 341.458,36.7318203 337.972,36.7318203 C334.486,36.7318203 331.498,39.7198203 331.498,43.5378203 C331.498,47.3558203 334.486,50.3438203 337.972,50.3438203 C341.458,50.3438203 344.446,47.3558203 344.446,43.5378203 Z M351.512,28.2658203 L351.512,51.5058203 L350.018,51.5058203 L350.018,28.2658203 L351.512,28.2658203 Z M355.59,43.5378203 C355.59,38.8898203 359.242,35.2378203 363.558,35.2378203 C367.874,35.2378203 371.526,38.8898203 371.526,43.5378203 C371.526,48.1858203 367.874,51.8378203 363.558,51.8378203 C359.242,51.8378203 355.59,48.1858203 355.59,43.5378203 Z M370.032,43.5378203 C370.032,39.7198203 367.044,36.7318203 363.558,36.7318203 C360.072,36.7318203 357.084,39.7198203 357.084,43.5378203 C357.084,47.3558203 360.072,50.3438203 363.558,50.3438203 C367.044,50.3438203 370.032,47.3558203 370.032,43.5378203 Z M375.77,43.2058203 C375.77,46.8578203 378.592,49.6798203 381.58,49.6798203 C384.568,49.6798203 387.556,46.8578203 387.556,43.2058203 C387.556,39.5538203 384.568,36.7318203 381.58,36.7318203 C378.592,36.7318203 375.77,39.5538203 375.77,43.2058203 Z M387.556,50.5098203 L387.556,47.8538203 C387.556,47.8538203 385.73,51.1738203 381.58,51.1738203 C377.762,51.1738203 374.276,47.6878203 374.276,43.2058203 C374.276,38.7238203 377.762,35.2378203 381.58,35.2378203 C385.73,35.2378203 387.556,38.5578203 387.556,38.5578203 L387.556,35.5698203 L389.05,35.5698203 L389.05,50.5098203 C389.05,54.9918203 385.564,58.4778203 381.414,58.4778203 C377.098,58.4778203 375.106,55.1578203 375.106,55.1578203 L376.102,54.1618203 C376.102,54.1618203 377.928,56.9838203 381.414,56.9838203 C384.734,56.9838203 387.556,54.1618203 387.556,50.5098203 Z M397.444,54.4938203 L398.606,51.5058203 L392.132,35.5698203 L393.792,35.5698203 L399.436,49.5138203 L405.08,35.5698203 L406.74,35.5698203 L399.104,54.4938203 C397.9752,57.3158203 396.78,58.4778203 394.456,58.4778203 C393.626,58.4778203 392.962,58.1458203 392.962,58.1458203 L392.962,56.6518203 C392.962,56.6518203 393.626,56.9838203 394.456,56.9838203 C395.95,56.9838203 396.78,56.1538203 397.444,54.4938203 Z"/><path fill="#FFFFFF" d="M31.912958,4.04979253 C33.3074173,4.04979253 34.3994638,4.62240664 35.1050938,5.40248963 L35.1050938,4.25726141 L38.0368186,4.25726141 L38.0368186,14.5477178 C38.0368186,17.5352697 36.1299374,19.9419087 32.5093834,19.9419087 C29.7876676,19.9419087 27.7967828,18.5477178 26.9399464,16.8962656 L29.5356568,15.4605809 C30.0900804,16.5643154 31.0813226,17.2614108 32.5093834,17.2614108 C34.0970509,17.2614108 35.1050938,16.033195 35.1050938,14.6556017 L35.1050938,13.659751 C34.3994638,14.4813278 33.2654155,15.0539419 31.8709562,15.0539419 C29.5944593,15.0539419 26.7047364,13.2780083 26.7047364,9.55186722 C26.7047364,5.80912863 29.493655,4.04979253 31.912958,4.04979253 Z M7.66112601,0.0414937759 C10.3912422,0.0414937759 12.8273458,1.40248963 14.1882038,3.6846473 L14.1882038,3.6846473 L14.2302055,3.7593361 L11.6176944,5.41078838 L11.5756926,5.32780083 C10.7188561,3.75103734 9.4,2.94605809 7.66952636,2.94605809 C4.99821269,2.94605809 2.9821269,4.94605809 2.9821269,7.593361 C2.9821269,10.1742739 5.00661305,12.1991701 7.6023235,12.1991701 C9.39159964,12.1991701 10.8868633,11.2282158 11.6932976,9.54356846 L11.6932976,9.54356846 L11.7352994,9.46058091 L14.4486148,10.879668 L14.406613,10.9543568 C13.0373548,13.5767635 10.5172475,15.1452282 7.66112601,15.1452282 C3.23413762,15.1452282 0.0168007149,11.966805 0.0168007149,7.593361 C0.0168007149,3.28630705 3.30134048,0.0414937759 7.66112601,0.0414937759 Z M20.4128686,4.04979253 C23.4957998,4.04979253 25.9655049,6.50622407 25.9655049,9.55186722 C25.9655049,12.5975104 23.5042002,15.0539419 20.4128686,15.0539419 C17.3299374,15.0539419 14.8602324,12.5975104 14.8602324,9.55186722 C14.8602324,6.50622407 17.3215371,4.04979253 20.4128686,4.04979253 Z M69.4709562,4.04979253 C70.8654155,4.04979253 71.957462,4.5560166 72.663092,5.30290456 L72.663092,4.26556017 L75.5948168,4.26556017 L75.5948168,14.846473 L72.663092,14.846473 L72.663092,13.659751 C71.957462,14.4813278 70.8234138,15.0539419 69.4289544,15.0539419 C67.1524576,15.0539419 64.2627346,13.2780083 64.2627346,9.55186722 C64.2627346,5.80912863 67.0516533,4.04979253 69.4709562,4.04979253 Z M53.3002681,4.29045643 L53.3002681,14.8713693 L50.3685433,14.8713693 L50.3685433,4.29045643 L53.3002681,4.29045643 Z M45.0847185,4.05809129 C47.6132261,4.05809129 49.1336908,5.66804979 49.1336908,8.39834025 L49.1336908,14.8547718 L46.1515639,14.8547718 L46.1515639,8.78008299 C46.1515639,7.36099585 45.4879357,6.53941909 44.1774799,6.53941909 C43.0602324,6.53941909 42.1445934,7.30290456 42.1445934,9.07883817 L42.1445934,14.8547718 L39.2128686,14.8547718 L39.2128686,4.26556017 L42.1277927,4.26556017 L42.1277927,5.45228216 C42.816622,4.58091286 43.8666667,4.05809129 45.0847185,4.05809129 Z M82.6511171,4.05809129 C85.1796247,4.05809129 86.7000894,5.66804979 86.7000894,8.39834025 L86.7000894,14.8547718 L83.7179625,14.8547718 L83.7179625,8.78008299 C83.7179625,7.36099585 83.0543342,6.53941909 81.7438785,6.53941909 C80.6266309,6.53941909 79.710992,7.30290456 79.710992,9.07883817 L79.710992,14.8547718 L76.7792672,14.8547718 L76.7792672,4.26556017 L79.6941912,4.26556017 L79.6941912,5.45228216 C80.3830206,4.58091286 81.4330652,4.05809129 82.6511171,4.05809129 Z M63.9855228,4.26556017 L63.9855228,6.87136929 L58.3488829,12.2821577 L64.0947274,12.2821577 L64.0947274,14.846473 L54.4091153,14.846473 L54.4091153,12.2655602 L60.0457551,6.82987552 L54.4931189,6.82987552 L54.4931189,4.26556017 L63.9855228,4.26556017 Z M91.9167113,0.763485477 L91.9167113,4.25726141 L93.9327971,4.25726141 L93.9327971,6.85477178 L91.9167113,6.85477178 L91.9167113,10.2240664 C91.9167113,11.8755187 92.1351206,12.1327801 93.9327971,12.1327801 L93.9327971,12.1327801 L93.9327971,14.8381743 L93.5043789,14.8381743 C90.1022341,14.8381743 88.9849866,13.7012448 88.9849866,10.2489627 L88.9849866,10.2489627 L88.9849866,6.86307054 L87.162109,6.86307054 L87.162109,4.25726141 L88.9849866,4.25726141 L88.9849866,0.763485477 L91.9167113,0.763485477 Z M70.0085791,6.69709544 C68.3789097,6.69709544 67.1356568,7.90041494 67.1356568,9.53526971 C67.1356568,11.1701245 68.3789097,12.3900415 70.0085791,12.3900415 C71.5878463,12.3900415 72.7470956,11.0954357 72.7470956,9.53526971 C72.7470956,7.96680498 71.5878463,6.69709544 70.0085791,6.69709544 Z M32.4505809,6.69709544 C30.8209115,6.69709544 29.5776586,7.90041494 29.5776586,9.53526971 C29.5776586,11.1701245 30.8209115,12.3900415 32.4505809,12.3900415 C34.0298481,12.3900415 35.1890974,11.0954357 35.1890974,9.53526971 C35.1890974,7.96680498 34.0298481,6.69709544 32.4505809,6.69709544 Z M20.4128686,6.7966805 C18.8924039,6.7966805 17.7331546,8.04149378 17.7331546,9.55186722 C17.7331546,11.0539419 18.8924039,12.3070539 20.4128686,12.3070539 C21.9165326,12.3070539 23.1093834,11.0539419 23.1093834,9.55186722 C23.1093834,8.04979253 21.9081323,6.7966805 20.4128686,6.7966805 Z M53.3422699,0.780082988 L53.3422699,3.41078838 L50.4105451,3.41078838 L50.4105451,0.780082988 L53.3422699,0.780082988 Z"/></g></svg>