<svg xmlns="http://www.w3.org/2000/svg" width="213" height="94" viewBox="0 0 213 94"><g fill="none" fill-rule="evenodd"><path fill="#00B140" fill-rule="nonzero" d="M10.458,28.27 C12.2065421,28.27 13.816726,28.5743303 15.2886,29.183 C16.760474,29.7916697 18.0386612,30.6161281 19.1232,31.6564 C20.2077388,32.6966719 21.0543303,33.9250596 21.663,35.3416 C22.2716697,36.7581404 22.576,38.2742586 22.576,39.89 C22.576,41.5057414 22.2716697,43.0218596 21.663,44.4384 C21.0543303,45.8549404 20.2077388,47.0833281 19.1232,48.1236 C18.0386612,49.1638719 16.760474,49.9883303 15.2886,50.597 C13.816726,51.2056697 12.2065421,51.51 10.458,51.51 L3.652,51.51 L3.652,28.27 L10.458,28.27 Z M5.312,29.93 L5.312,49.85 L10.458,49.85 C11.9852076,49.85 13.3906602,49.5954692 14.6744,49.0864 C15.9581398,48.5773308 17.0647954,47.8746045 17.9944,46.9782 C18.9240046,46.0817955 19.6433308,45.0304727 20.1524,43.8242 C20.6614692,42.6179273 20.916,41.3065404 20.916,39.89 C20.916,38.4734596 20.6614692,37.1620727 20.1524,35.9558 C19.6433308,34.7495273 18.9240046,33.6982045 17.9944,32.8018 C17.0647954,31.9053955 15.9581398,31.2026692 14.6744,30.6936 C13.3906602,30.1845308 11.9852076,29.93 10.458,29.93 L5.312,29.93 Z M26.82,35.574 L28.314,35.574 L28.314,51.51 L26.82,51.51 L26.82,35.574 Z M26.488,29.93 C26.488,29.5979983 26.5986656,29.3213344 26.82,29.1 C27.0413344,28.8786656 27.3179983,28.768 27.65,28.768 C27.9820017,28.768 28.2586656,28.8786656 28.48,29.1 C28.7013344,29.3213344 28.812,29.5979983 28.812,29.93 C28.812,30.2620017 28.7013344,30.5386656 28.48,30.76 C28.2586656,30.9813344 27.9820017,31.092 27.65,31.092 C27.3179983,31.092 27.0413344,30.9813344 26.82,30.76 C26.5986656,30.5386656 26.488,30.2620017 26.488,29.93 Z M33.886,43.21 C33.886,44.1174712 34.0464651,44.969596 34.3674,45.7664 C34.688335,46.563204 35.1199306,47.2493305 35.6622,47.8248 C36.2044694,48.4002695 36.8241965,48.8539983 37.5214,49.186 C38.2186035,49.5180017 38.9434629,49.684 39.696,49.684 C40.4485371,49.684 41.1789298,49.5180017 41.8872,49.186 C42.5954702,48.8539983 43.2317972,48.4002695 43.7962,47.8248 C44.3606028,47.2493305 44.8143316,46.563204 45.1574,45.7664 C45.5004684,44.969596 45.672,44.1174712 45.672,43.21 C45.672,42.3025288 45.5004684,41.4559373 45.1574,40.6702 C44.8143316,39.8844627 44.3606028,39.1983363 43.7962,38.6118 C43.2317972,38.0252637 42.5954702,37.5660017 41.8872,37.234 C41.1789298,36.9019983 40.4485371,36.736 39.696,36.736 C38.9434629,36.736 38.2186035,36.9019983 37.5214,37.234 C36.8241965,37.5660017 36.2044694,38.0252637 35.6622,38.6118 C35.1199306,39.1983363 34.688335,39.8844627 34.3674,40.6702 C34.0464651,41.4559373 33.886,42.3025288 33.886,43.21 Z M45.672,47.858 C45.2957315,48.4777364 44.8198696,49.0310642 44.2444,49.518 C43.7574642,49.9385354 43.1377371,50.3203316 42.3852,50.6634 C41.6326629,51.0064684 40.7362719,51.178 39.696,51.178 C38.7442619,51.178 37.8257378,50.9732687 36.9404,50.5638 C36.0550623,50.1543313 35.2748701,49.5899369 34.5998,48.8706 C33.92473,48.1512631 33.388002,47.3102048 32.9896,46.3474 C32.591198,45.3845952 32.392,44.3388056 32.392,43.21 C32.392,42.0811944 32.591198,41.0354048 32.9896,40.0726 C33.388002,39.1097952 33.92473,38.2687369 34.5998,37.5494 C35.2748701,36.8300631 36.0550623,36.2656687 36.9404,35.8562 C37.8257378,35.4467313 38.7442619,35.242 39.696,35.242 C40.7362719,35.242 41.6326629,35.4135316 42.3852,35.7566 C43.1377371,36.0996684 43.7574642,36.4814646 44.2444,36.902 C44.8198696,37.3889358 45.2957315,37.9422636 45.672,38.562 L45.672,35.574 L47.166,35.574 L47.166,50.514 C47.166,51.6428056 46.9612687,52.6885952 46.5518,53.6514 C46.1423313,54.6142048 45.5890035,55.4552631 44.8918,56.1746 C44.1945965,56.8939369 43.3867379,57.4583313 42.4682,57.8678 C41.5496621,58.2772687 40.5702719,58.482 39.53,58.482 C38.4454613,58.482 37.504804,58.3104684 36.708,57.9674 C35.911196,57.6243316 35.2582692,57.2425354 34.7492,56.822 C34.151597,56.3350642 33.6425355,55.7817364 33.222,55.162 L34.218,54.166 C34.5942686,54.7193361 35.0479974,55.195198 35.5792,55.5936 C36.0218689,55.9477351 36.5696634,56.2686652 37.2226,56.5564 C37.8755366,56.8441348 38.6446623,56.988 39.53,56.988 C40.3489374,56.988 41.1346629,56.8220017 41.8872,56.49 C42.6397371,56.1579983 43.2926639,55.7042695 43.846,55.1288 C44.3993361,54.5533305 44.8419984,53.867204 45.174,53.0704 C45.5060017,52.273596 45.672,51.4214712 45.672,50.514 L45.672,47.858 Z M52.572,35.574 L54.066,35.574 L54.066,51.51 L52.572,51.51 L52.572,35.574 Z M52.24,29.93 C52.24,29.5979983 52.3506656,29.3213344 52.572,29.1 C52.7933345,28.8786656 53.0699984,28.768 53.402,28.768 C53.7340017,28.768 54.0106656,28.8786656 54.232,29.1 C54.4533345,29.3213344 54.564,29.5979983 54.564,29.93 C54.564,30.2620017 54.4533345,30.5386656 54.232,30.76 C54.0106656,30.9813344 53.7340017,31.092 53.402,31.092 C53.0699984,31.092 52.7933345,30.9813344 52.572,30.76 C52.3506656,30.5386656 52.24,30.2620017 52.24,29.93 Z M60.8,30.262 L62.128,30.262 L62.128,35.574 L65.78,35.574 L65.78,37.068 L62.128,37.068 L62.128,47.526 C62.128,48.4556046 62.3548644,49.158331 62.8086,49.6342 C63.2623356,50.110069 63.8654629,50.348 64.618,50.348 C64.9057348,50.348 65.1823987,50.3258669 65.448,50.2816 C65.7136014,50.2373331 65.945999,50.1820003 66.1452,50.1156 C66.3886679,50.0270662 66.5989325,49.9385338 66.776,49.85 L66.776,51.344 C66.5989325,51.4325338 66.3886679,51.5210662 66.1452,51.6096 C65.945999,51.6760003 65.7136014,51.7313331 65.448,51.7756 C65.1823987,51.8198669 64.9057348,51.842 64.618,51.842 C63.3563937,51.842 62.3770035,51.4768037 61.6798,50.7464 C60.9825965,50.0159963 60.634,48.9425404 60.634,47.526 L60.634,37.068 L57.48,37.068 L57.48,35.574 L59.638,35.574 C59.9700017,35.574 60.2466656,35.4578012 60.468,35.2254 C60.6893345,34.9929988 60.8,34.6665354 60.8,34.246 L60.8,30.262 Z M79.984,41.55 C79.984,40.8638632 79.8678012,40.2275363 79.6354,39.641 C79.4029989,39.0544637 79.087602,38.5454022 78.6892,38.1138 C78.290798,37.6821978 77.8204694,37.3446679 77.2782,37.1012 C76.7359307,36.8577321 76.1438699,36.736 75.502,36.736 C74.7715964,36.736 74.1186696,36.8577321 73.5432,37.1012 C72.9677305,37.3446679 72.480802,37.6102652 72.0824,37.898 C71.6175977,38.2521351 71.2081351,38.6394646 70.854,39.06 L69.858,38.064 C70.256402,37.5327973 70.7433305,37.068002 71.3188,36.6696 C71.8057358,36.3154649 72.3977965,35.9890015 73.095,35.6902 C73.7922035,35.3913985 74.5945288,35.242 75.502,35.242 C76.3652044,35.242 77.1619964,35.4024651 77.8924,35.7234 C78.6228037,36.0443349 79.2535974,36.4869972 79.7848,37.0514 C80.3160027,37.6158028 80.7309985,38.2853295 81.0298,39.06 C81.3286015,39.8346705 81.478,40.6646622 81.478,41.55 L81.478,51.51 L79.984,51.51 L79.984,48.854 C79.6077315,49.4294695 79.1318696,49.9274646 78.5564,50.348 C78.0694643,50.7242685 77.466337,51.0673318 76.747,51.3772 C76.0276631,51.6870682 75.170005,51.842 74.174,51.842 C73.3771961,51.842 72.6523366,51.7202679 71.9994,51.4768 C71.3464634,51.2333321 70.7876024,50.9013354 70.3228,50.4808 C69.8579977,50.0602646 69.4983346,49.5788694 69.2438,49.0366 C68.9892654,48.4943306 68.862,47.9354695 68.862,47.36 C68.862,46.0983937 69.2880624,45.0415376 70.1402,44.1894 C70.9923376,43.3372624 72.1709258,42.7894679 73.676,42.546 L79.984,41.55 Z M74.174,50.348 C74.9929375,50.348 75.7620631,50.1986015 76.4814,49.8998 C77.200737,49.6009985 77.8149308,49.1970692 78.324,48.688 C78.8330692,48.1789308 79.2369985,47.5702702 79.5358,46.862 C79.8346015,46.1537298 79.984,45.3790709 79.984,44.538 L79.984,43.044 L74.008,44.04 C72.7463937,44.239201 71.8223363,44.6320637 71.2358,45.2186 C70.6492638,45.8051363 70.356,46.5189291 70.356,47.36 C70.356,47.7362685 70.4445325,48.1014649 70.6216,48.4556 C70.7986676,48.8097351 71.0531984,49.1306652 71.3852,49.4184 C71.7172017,49.7061348 72.121131,49.9329992 72.597,50.099 C73.0728691,50.2650008 73.5985305,50.348 74.174,50.348 Z M88.046,51.51 L86.552,51.51 L86.552,28.27 L88.046,28.27 L88.046,51.51 Z M111.308,45.368 C111.308,44.571196 111.119869,43.9127359 110.7436,43.3926 C110.367332,42.8724641 109.880403,42.4298018 109.2828,42.0646 C108.685197,41.6993982 107.999071,41.3840013 107.2244,41.1184 C106.44973,40.8527987 105.652937,40.5927346 104.834,40.3382 C104.015063,40.0836654 103.218271,39.8014682 102.4436,39.4916 C101.66893,39.1817318 100.982803,38.788869 100.3852,38.313 C99.7875971,37.837131 99.3006686,37.26167 98.9244001,36.5866 C98.5481315,35.91153 98.3600001,35.076005 98.3600001,34.08 C98.3600001,33.2610626 98.5315317,32.4753371 98.8746001,31.7228 C99.2176684,30.9702629 99.7045969,30.3173361 100.3354,29.764 C100.966203,29.2106639 101.729796,28.7680017 102.6262,28.436 C103.522605,28.1039983 104.535194,27.938 105.664,27.938 C106.748539,27.938 107.700263,28.0873985 108.5192,28.3862 C109.338137,28.6850015 110.035331,29.0114649 110.6108,29.3656 C111.274803,29.764002 111.839198,30.2287973 112.304,30.76 L111.142,31.922 C110.765732,31.5014646 110.312003,31.1141351 109.7808,30.76 C109.315998,30.4722652 108.74607,30.2066679 108.071,29.9632 C107.39593,29.7197321 106.593605,29.598 105.664,29.598 C104.756529,29.598 103.94867,29.7141988 103.2404,29.9466 C102.53213,30.1790012 101.940069,30.4999313 101.4642,30.9094 C100.988331,31.3188687 100.628668,31.7947306 100.3852,32.337 C100.141732,32.8792694 100.02,33.4602636 100.02,34.08 C100.02,34.876804 100.208132,35.5352641 100.5844,36.0554 C100.960669,36.5755359 101.447597,37.0181982 102.0452,37.3834 C102.642803,37.7486018 103.32893,38.0639987 104.1036,38.3296 C104.878271,38.5952013 105.675063,38.8552654 106.494,39.1098 C107.312937,39.3643346 108.10973,39.6465318 108.8844,39.9564 C109.659071,40.2662682 110.345197,40.659131 110.9428,41.135 C111.540403,41.610869 112.027332,42.18633 112.4036,42.8614 C112.779869,43.53647 112.968,44.371995 112.968,45.368 C112.968,46.2754712 112.796468,47.127596 112.4534,47.9244 C112.110332,48.721204 111.612337,49.4073305 110.9594,49.9828 C110.306463,50.5582695 109.504138,51.0119983 108.5524,51.344 C107.600662,51.6760017 106.527206,51.842 105.332,51.842 C104.026127,51.842 102.902871,51.6649351 101.9622,51.3108 C101.021529,50.9566649 100.23027,50.5582689 99.5884001,50.1156 C98.8579964,49.6065308 98.2272027,49.0200033 97.6960001,48.356 L98.8580001,47.194 C99.2785355,47.7694695 99.7986636,48.2674646 100.4184,48.688 C100.949603,49.0642685 101.619129,49.4073318 102.427,49.7172 C103.234871,50.0270682 104.203194,50.182 105.332,50.182 C107.346143,50.182 108.845662,49.7338045 109.8306,48.8374 C110.815538,47.9409955 111.308,46.7845404 111.308,45.368 Z M120.532,51.51 L114.058,35.574 L115.718,35.574 L121.362,49.518 L127.006,35.574 L128.666,35.574 L121.03,54.498 C120.454531,55.9145404 119.82927,56.9326636 119.1542,57.5524 C118.47913,58.1721364 117.555073,58.482 116.382,58.482 C116.045572,58.482 115.751643,58.446587 115.500208,58.3757602 L115.3196,58.316 C115.164666,58.2717331 115.020801,58.2164003 114.888,58.15 L114.888,56.656 C114.976534,56.7002669 115.069985,56.7396149 115.168355,56.7740444 L115.3196,56.822 C115.607335,56.9326672 115.961465,56.988 116.382,56.988 C117.134537,56.988 117.737664,56.7832687 118.1914,56.3738 C118.645136,55.9643313 119.037998,55.3390709 119.37,54.498 L120.532,51.51 Z M139.716,38.728 C139.450399,38.3517315 139.129469,38.0197348 138.7532,37.732 C138.443332,37.4885321 138.044936,37.2616677 137.558,37.0514 C137.071064,36.8411323 136.517737,36.736 135.898,36.736 C134.724928,36.736 133.823003,37.0237305 133.1922,37.5992 C132.561397,38.1746695 132.246,38.8275963 132.246,39.558 C132.246,40.1998699 132.472864,40.7033982 132.9266,41.0686 C133.380336,41.4338018 133.94473,41.7381321 134.6198,41.9816 C135.29487,42.2250679 136.025263,42.4519323 136.811,42.6622 C137.596737,42.8724677 138.32713,43.1491316 139.0022,43.4922 C139.67727,43.8352684 140.241664,44.2834639 140.6954,44.8368 C141.149136,45.3901361 141.376,46.1205288 141.376,47.028 C141.376,47.6920033 141.243201,48.3172637 140.9776,48.9038 C140.711999,49.4903363 140.335736,49.9993978 139.8488,50.431 C139.361864,50.8626022 138.769804,51.2056654 138.0726,51.4602 C137.375397,51.7147346 136.595204,51.842 135.732,51.842 C134.802395,51.842 133.994537,51.7036681 133.3084,51.427 C132.622263,51.150332 132.035736,50.8460017 131.5488,50.514 C130.973331,50.115598 130.486402,49.6729358 130.088,49.186 L131.25,48.024 C131.533308,48.3781351 131.844943,48.696853 132.184911,48.9801596 L132.4452,49.186 C132.821469,49.4958682 133.286264,49.7669988 133.8396,49.9994 C134.392936,50.2318012 135.02373,50.348 135.732,50.348 C137.060007,50.348 138.083663,50.0270699 138.803,49.3852 C139.522337,48.7433301 139.882,47.9576046 139.882,47.028 C139.882,46.3639967 139.655136,45.8438685 139.2014,45.4676 C138.747664,45.0913315 138.18327,44.7704013 137.5082,44.5048 C136.83313,44.2391987 136.102737,44.0012677 135.317,43.791 C134.531263,43.5807323 133.80087,43.3096017 133.1258,42.9776 C132.45073,42.6455983 131.886336,42.2140027 131.4326,41.6828 C130.978864,41.1515973 130.752,40.4433378 130.752,39.558 C130.752,39.0267973 130.879265,38.5011359 131.1338,37.981 C131.388335,37.4608641 131.742464,36.9960687 132.1962,36.5866 C132.649936,36.1771313 133.192197,35.8506679 133.823,35.6072 C134.453803,35.3637321 135.145463,35.242 135.898,35.242 C136.672671,35.242 137.369864,35.3637321 137.9896,35.6072 C138.609337,35.8506679 139.140531,36.1162652 139.5832,36.404 C140.092269,36.7581351 140.523865,37.1454646 140.878,37.566 L139.716,38.728 Z M146.782,30.262 L148.11,30.262 L148.11,35.574 L151.762,35.574 L151.762,37.068 L148.11,37.068 L148.11,47.526 C148.11,48.4556046 148.336864,49.158331 148.7906,49.6342 C149.244336,50.110069 149.847463,50.348 150.6,50.348 C150.887735,50.348 151.164399,50.3258669 151.43,50.2816 C151.695601,50.2373331 151.927999,50.1820003 152.1272,50.1156 C152.370668,50.0270662 152.580933,49.9385338 152.758,49.85 L152.758,51.344 C152.580933,51.4325338 152.370668,51.5210662 152.1272,51.6096 C151.927999,51.6760003 151.695601,51.7313331 151.43,51.7756 C151.164399,51.8198669 150.887735,51.842 150.6,51.842 C149.338394,51.842 148.359004,51.4768037 147.6618,50.7464 C146.964597,50.0159963 146.616,48.9425404 146.616,47.526 L146.616,37.068 L143.462,37.068 L143.462,35.574 L145.62,35.574 C145.952002,35.574 146.228666,35.4578012 146.45,35.2254 C146.671335,34.9929988 146.782,34.6665354 146.782,34.246 L146.782,30.262 Z M156.006,44.206 C156.050267,45.0470709 156.249465,45.8383296 156.6036,46.5798 C156.957735,47.3212704 157.416997,47.9686639 157.9814,48.522 C158.545803,49.0753361 159.19873,49.5179983 159.9402,49.85 C160.68167,50.1820017 161.472929,50.348 162.314,50.348 C163.177204,50.348 163.940797,50.2041348 164.6048,49.9164 C165.268803,49.6286652 165.822131,49.3077351 166.2648,48.9536 C166.796003,48.555198 167.249732,48.0904027 167.626,47.5592 L168.622,48.522 C168.179331,49.1417364 167.648137,49.6950642 167.0284,50.182 C166.497197,50.6025354 165.838737,50.9843316 165.053,51.3274 C164.267263,51.6704684 163.354272,51.842 162.314,51.842 C161.273728,51.842 160.283271,51.6262022 159.3426,51.1946 C158.401929,50.7629978 157.571937,50.1764704 156.8526,49.435 C156.133263,48.6935296 155.563336,47.8192717 155.1428,46.8122 C154.722265,45.8051283 154.512,44.7150725 154.512,43.542 C154.512,42.3910609 154.722265,41.3065384 155.1428,40.2884 C155.563336,39.2702616 156.12773,38.3904704 156.836,37.649 C157.54427,36.9075296 158.357662,36.3210022 159.2762,35.8894 C160.194738,35.4577978 161.151995,35.242 162.148,35.242 C163.144005,35.242 164.084662,35.441198 164.97,35.8396 C165.855338,36.238002 166.629997,36.8023963 167.294,37.5328 C167.958003,38.2632037 168.483665,39.1374616 168.871,40.1556 C169.258335,41.1737384 169.452,42.3025271 169.452,43.542 L169.452,44.206 L156.006,44.206 Z M162.148,36.736 C161.351196,36.736 160.593137,36.9019983 159.8738,37.234 C159.154463,37.5660017 158.512603,38.0031306 157.9482,38.5454 C157.383797,39.0876694 156.930068,39.7184631 156.587,40.4378 C156.243932,41.1571369 156.050267,41.915196 156.006,42.712 L167.958,42.712 C167.913733,41.8487957 167.736668,41.0520037 167.4268,40.3216 C167.116932,39.5911963 166.701936,38.9604027 166.1818,38.4292 C165.661664,37.8979973 165.058537,37.4830015 164.3724,37.1842 C163.686263,36.8853985 162.944804,36.736 162.148,36.736 Z M195.11,42.048 C195.11,41.2290626 194.993801,40.4876033 194.7614,39.8236 C194.528999,39.1595967 194.208069,38.6007356 193.7986,38.147 C193.389131,37.6932644 192.913269,37.3446679 192.371,37.1012 C191.828731,36.8577321 191.247737,36.736 190.628,36.736 C189.963997,36.736 189.338736,36.8687987 188.7522,37.1344 C188.165664,37.4000013 187.656602,37.7817975 187.225,38.2798 C186.793398,38.7778025 186.450335,39.3864631 186.1958,40.1058 C185.941265,40.8251369 185.814,41.6385288 185.814,42.546 L185.814,51.51 L184.32,51.51 L184.32,42.048 C184.32,41.2290626 184.203801,40.4876033 183.9714,39.8236 C183.738999,39.1595967 183.418069,38.6007356 183.0086,38.147 C182.599131,37.6932644 182.123269,37.3446679 181.581,37.1012 C181.038731,36.8577321 180.457737,36.736 179.838,36.736 C179.173997,36.736 178.548736,36.8687987 177.9622,37.1344 C177.375664,37.4000013 176.866602,37.7817975 176.435,38.2798 C176.003398,38.7778025 175.660335,39.3864631 175.4058,40.1058 C175.151265,40.8251369 175.024,41.6385288 175.024,42.546 L175.024,51.51 L173.53,51.51 L173.53,35.574 L175.024,35.574 L175.024,37.898 C175.311735,37.4110642 175.676931,36.968402 176.1196,36.57 C176.495869,36.2379983 176.98833,35.9336681 177.597,35.657 C178.20567,35.380332 178.952662,35.242 179.838,35.242 C180.834005,35.242 181.66953,35.4356647 182.3446,35.823 C183.01967,36.2103353 183.567465,36.6253311 183.988,37.068 C184.474936,37.6213361 184.862265,38.2299967 185.15,38.894 C185.415601,38.2299967 185.791864,37.6213361 186.2788,37.068 C186.699336,36.6253311 187.26373,36.2103353 187.972,35.823 C188.68027,35.4356647 189.565595,35.242 190.628,35.242 C191.446938,35.242 192.221596,35.3969318 192.952,35.7068 C193.682404,36.0166682 194.318731,36.4593305 194.861,37.0348 C195.403269,37.6102695 195.829332,38.3185291 196.1392,39.1596 C196.449068,40.0006709 196.604,40.9634612 196.604,42.048 L196.604,51.51 L195.11,51.51 L195.11,42.048 Z M209.646,38.728 C209.380399,38.3517315 209.059469,38.0197348 208.6832,37.732 C208.373332,37.4885321 207.974936,37.2616677 207.488,37.0514 C207.001064,36.8411323 206.447737,36.736 205.828,36.736 C204.654928,36.736 203.753003,37.0237305 203.1222,37.5992 C202.491397,38.1746695 202.176,38.8275963 202.176,39.558 C202.176,40.1998699 202.402864,40.7033982 202.8566,41.0686 C203.310336,41.4338018 203.87473,41.7381321 204.5498,41.9816 C205.22487,42.2250679 205.955263,42.4519323 206.741,42.6622 C207.526737,42.8724677 208.25713,43.1491316 208.9322,43.4922 C209.60727,43.8352684 210.171664,44.2834639 210.6254,44.8368 C211.079136,45.3901361 211.306,46.1205288 211.306,47.028 C211.306,47.6920033 211.173201,48.3172637 210.9076,48.9038 C210.641999,49.4903363 210.265736,49.9993978 209.7788,50.431 C209.291864,50.8626022 208.699804,51.2056654 208.0026,51.4602 C207.305397,51.7147346 206.525204,51.842 205.662,51.842 C204.732395,51.842 203.924537,51.7036681 203.2384,51.427 C202.552263,51.150332 201.965736,50.8460017 201.4788,50.514 C200.903331,50.115598 200.416402,49.6729358 200.018,49.186 L201.18,48.024 C201.463308,48.3781351 201.774943,48.696853 202.114911,48.9801596 L202.3752,49.186 C202.751469,49.4958682 203.216264,49.7669988 203.7696,49.9994 C204.322936,50.2318012 204.95373,50.348 205.662,50.348 C206.990007,50.348 208.013663,50.0270699 208.733,49.3852 C209.452337,48.7433301 209.812,47.9576046 209.812,47.028 C209.812,46.3639967 209.585136,45.8438685 209.1314,45.4676 C208.677664,45.0913315 208.11327,44.7704013 207.4382,44.5048 C206.76313,44.2391987 206.032737,44.0012677 205.247,43.791 C204.461263,43.5807323 203.73087,43.3096017 203.0558,42.9776 C202.38073,42.6455983 201.816336,42.2140027 201.3626,41.6828 C200.908864,41.1515973 200.682,40.4433378 200.682,39.558 C200.682,39.0267973 200.809265,38.5011359 201.0638,37.981 C201.318335,37.4608641 201.672464,36.9960687 202.1262,36.5866 C202.579936,36.1771313 203.122197,35.8506679 203.753,35.6072 C204.383803,35.3637321 205.075463,35.242 205.828,35.242 C206.602671,35.242 207.299864,35.3637321 207.9196,35.6072 C208.539337,35.8506679 209.070531,36.1162652 209.5132,36.404 C210.022269,36.7581351 210.453865,37.1454646 210.808,37.566 L209.646,38.728 Z M13.446,67.918 C13.446,68.8254712 13.2136023,69.6720627 12.7488,70.4578 C12.2839977,71.2435373 11.7638695,71.9241305 11.1884,72.4996 C10.5243967,73.1857368 9.78293743,73.8165305 8.964,74.392 L14.94,81.696 C15.2498682,81.1869308 15.5265321,80.6004033 15.77,79.9364 C15.969201,79.3609305 16.1573324,78.6803373 16.3344,77.8946 C16.5114676,77.1088627 16.6,76.218005 16.6,75.222 L18.094,75.222 C18.094,76.3950725 17.9778012,77.4463954 17.7454,78.376 C17.5129988,79.3056046 17.2640013,80.1023967 16.9984,80.7664 C16.6885318,81.5410705 16.334402,82.2382636 15.936,82.858 C16.2237348,83.3006689 16.5335983,83.6879983 16.8656,84.02 C17.1533348,84.3298682 17.4742649,84.6009988 17.8284,84.8334 C18.1825351,85.0658012 18.5477315,85.182 18.924,85.182 C19.0346672,85.182 19.1508661,85.1764667 19.2726,85.1654 C19.3943339,85.1543333 19.5105328,85.1377334 19.6212,85.1156 C19.7318672,85.0934666 19.8314662,85.0602669 19.92,85.016 L19.92,86.51 C19.8314662,86.5542669 19.7318672,86.5874666 19.6212,86.6096 C19.5105328,86.6317334 19.3943339,86.6483333 19.2726,86.6594 C19.1508661,86.6704667 19.0346672,86.676 18.924,86.676 C18.3485305,86.676 17.8173358,86.5376681 17.3304,86.261 C16.8434642,85.984332 16.4229351,85.6800017 16.0688,85.348 C15.670398,84.949598 15.2941351,84.5069358 14.94,84.02 C14.5194646,84.5733361 14.010403,85.049198 13.4128,85.4476 C12.9037308,85.8017351 12.2618705,86.1226652 11.4872,86.4104 C10.7125295,86.6981348 9.81613842,86.842 8.798,86.842 C7.84626191,86.842 6.97200398,86.6870682 6.1752,86.3772 C5.37839602,86.0673318 4.69780282,85.6523359 4.1334,85.1322 C3.56899718,84.6120641 3.12633494,84.01447 2.8054,83.3394 C2.48446506,82.66433 2.324,81.9505371 2.324,81.198 C2.324,80.1577281 2.56746423,79.2226042 3.0544,78.3926 C3.54133577,77.5625959 4.07253046,76.848803 4.648,76.2512 C5.33413676,75.5429298 6.10879568,74.9232027 6.972,74.392 C6.28586324,73.7279967 5.67720266,73.0308037 5.146,72.3004 C4.68119768,71.6806636 4.26066855,71.0000704 3.8844,70.2586 C3.50813145,69.5171296 3.32,68.7922702 3.32,68.084 C3.32,67.3757298 3.45833195,66.7117364 3.735,66.092 C4.01166805,65.4722636 4.38239768,64.9300023 4.8472,64.4652 C5.31200232,64.0003977 5.85426357,63.6296681 6.474,63.353 C7.09373643,63.076332 7.75772979,62.938 8.466,62.938 C9.17427021,62.938 9.83273029,63.0652654 10.4414,63.3198 C11.0500697,63.5743346 11.5757311,63.9229311 12.0184,64.3656 C12.4610689,64.8082689 12.8096654,65.3339303 13.0642,65.9426 C13.3187346,66.5512697 13.446,67.2097298 13.446,67.918 Z M7.802,75.388 C7.0494629,75.9192027 6.38546954,76.4946636 5.81,77.1144 C5.30093079,77.6456027 4.84166871,78.2653298 4.4322,78.9736 C4.02273129,79.6818702 3.818,80.4233295 3.818,81.198 C3.818,82.3710725 4.24959568,83.355996 5.1128,84.1528 C5.97600432,84.949604 7.20439203,85.348 8.798,85.348 C9.63907087,85.348 10.3805301,85.2207346 11.0224,84.9662 C11.6642699,84.7116654 12.2065311,84.4294682 12.6492,84.1196 C13.1582692,83.7433315 13.5898649,83.3228023 13.944,82.858 L7.802,75.388 Z M4.814,68.084 C4.814,68.6594695 4.98553162,69.2625968 5.3286,69.8934 C5.67166838,70.5242032 6.05346456,71.0941308 6.474,71.6032 C6.96093577,72.200803 7.51426357,72.798397 8.134,73.396 C8.82013676,72.8426639 9.45093046,72.267203 10.0264,71.6696 C10.5133358,71.1605308 10.955998,70.5795366 11.3544,69.9266 C11.752802,69.2736634 11.952,68.6041368 11.952,67.918 C11.952,66.921995 11.6200033,66.0920033 10.956,65.428 C10.2919967,64.7639967 9.46200498,64.432 8.466,64.432 C7.95693079,64.432 7.48106888,64.531599 7.0384,64.7308 C6.59573112,64.930001 6.20840166,65.1955983 5.8764,65.5276 C5.54439834,65.8596017 5.28433427,66.2469311 5.0962,66.6896 C4.90806573,67.1322689 4.814,67.5970642 4.814,68.084 Z M43.016,63.27 L43.016,64.93 L35.38,64.93 L35.38,86.51 L33.72,86.51 L33.72,64.93 L26.084,64.93 L26.084,63.27 L43.016,63.27 Z M44.106,79.206 C44.1502669,80.0470709 44.3494649,80.8383296 44.7036,81.5798 C45.0577351,82.3212704 45.5169972,82.9686639 46.0814,83.522 C46.6458028,84.0753361 47.2987296,84.5179983 48.0402,84.85 C48.7816704,85.1820017 49.5729291,85.348 50.414,85.348 C51.2772043,85.348 52.0407967,85.2041348 52.7048,84.9164 C53.3688033,84.6286652 53.9221311,84.3077351 54.3648,83.9536 C54.8960027,83.555198 55.3497315,83.0904027 55.726,82.5592 L56.722,83.522 C56.2793311,84.1417364 55.7481365,84.6950642 55.1284,85.182 C54.5971974,85.6025354 53.9387373,85.9843316 53.153,86.3274 C52.3672628,86.6704684 51.4542719,86.842 50.414,86.842 C49.3737282,86.842 48.3832714,86.6262022 47.4426,86.1946 C46.5019287,85.7629978 45.671937,85.1764704 44.9526,84.435 C44.2332631,83.6935296 43.6633355,82.8192717 43.2428,81.8122 C42.8222646,80.8051283 42.612,79.7150725 42.612,78.542 C42.612,77.3910609 42.8222646,76.3065384 43.2428,75.2884 C43.6633355,74.2702616 44.2277298,73.3904704 44.936,72.649 C45.6442702,71.9075296 46.4576621,71.3210022 47.3762,70.8894 C48.2947379,70.4577978 49.251995,70.242 50.248,70.242 C51.244005,70.242 52.1846623,70.441198 53.07,70.8396 C53.9553378,71.238002 54.7299967,71.8023963 55.394,72.5328 C56.0580033,73.2632037 56.5836648,74.1374616 56.971,75.1556 C57.3583353,76.1737384 57.552,77.3025271 57.552,78.542 L57.552,79.206 L44.106,79.206 Z M50.248,71.736 C49.451196,71.736 48.693137,71.9019983 47.9738,72.234 C47.2544631,72.5660017 46.6126028,73.0031306 46.0482,73.5454 C45.4837972,74.0876694 45.0300684,74.7184631 44.687,75.4378 C44.3439316,76.1571369 44.1502669,76.915196 44.106,77.712 L56.058,77.712 C56.0137331,76.8487957 55.8366682,76.0520037 55.5268,75.3216 C55.2169318,74.5911963 54.801936,73.9604027 54.2818,73.4292 C53.7616641,72.8979973 53.1585368,72.4830015 52.4724,72.1842 C51.7862633,71.8853985 51.044804,71.736 50.248,71.736 Z M60.302,78.542 C60.302,77.3910609 60.5122646,76.3065384 60.9328,75.2884 C61.3533355,74.2702616 61.9232631,73.3904704 62.6426,72.649 C63.361937,71.9075296 64.1919287,71.3210022 65.1326,70.8894 C66.0732714,70.4577978 67.0637282,70.242 68.104,70.242 C69.1442719,70.242 70.0572628,70.4135316 70.843,70.7566 C71.6287373,71.0996684 72.2871974,71.4814646 72.8184,71.902 C73.4381365,72.3889358 73.9693311,72.9422636 74.412,73.562 L73.25,74.558 C72.9179984,74.0267973 72.4974692,73.562002 71.9884,73.1636 C71.5457311,72.8094649 71.0034699,72.4830015 70.3616,72.1842 C69.7197302,71.8853985 68.9672043,71.736 68.104,71.736 C67.2629292,71.736 66.4661371,71.9130649 65.7136,72.2672 C64.9610629,72.6213351 64.2915363,73.1027303 63.705,73.7114 C63.1184638,74.3200697 62.6536684,75.0393959 62.3106,75.8694 C61.9675316,76.6994042 61.796,77.5902619 61.796,78.542 C61.796,79.4937381 61.9675316,80.3845959 62.3106,81.2146 C62.6536684,82.0446042 63.1184638,82.7639303 63.705,83.3726 C64.2915363,83.9812697 64.9610629,84.4626649 65.7136,84.8168 C66.4661371,85.1709351 67.2629292,85.348 68.104,85.348 C68.9672043,85.348 69.7197302,85.2041348 70.3616,84.9164 C71.0034699,84.6286652 71.5457311,84.3077351 71.9884,83.9536 C72.4974692,83.555198 72.9179984,83.0793361 73.25,82.526 L74.412,83.522 C73.9693311,84.1417364 73.4381365,84.6950642 72.8184,85.182 C72.2871974,85.6025354 71.6287373,85.9843316 70.843,86.3274 C70.0572628,86.6704684 69.1442719,86.842 68.104,86.842 C67.0637282,86.842 66.0732714,86.6262022 65.1326,86.1946 C64.1919287,85.7629978 63.361937,85.1764704 62.6426,84.435 C61.9232631,83.6935296 61.3533355,82.8192717 60.9328,81.8122 C60.5122646,80.8051283 60.302,79.7150725 60.302,78.542 Z M79.652,73.396 C79.9618683,72.8205305 80.3713308,72.3004023 80.8804,71.8356 C81.3230689,71.437198 81.8929965,71.0720017 82.5902,70.74 C83.2874035,70.4079983 84.1339951,70.242 85.13,70.242 C86.0374712,70.242 86.8840628,70.4079983 87.6698,70.74 C88.4555373,71.0720017 89.1416638,71.5423303 89.7282,72.151 C90.3147363,72.7596697 90.7739984,73.4789959 91.106,74.309 C91.4380017,75.1390042 91.604,76.051995 91.604,77.048 L91.604,86.51 L90.11,86.51 L90.11,77.048 C90.11,76.251196 89.9827346,75.5263366 89.7282,74.8734 C89.4736654,74.2204634 89.1250689,73.6616023 88.6824,73.1968 C88.2397312,72.7319977 87.7140697,72.3723346 87.1054,72.1178 C86.4967303,71.8632654 85.8382702,71.736 85.13,71.736 C84.3774629,71.736 83.6692034,71.8853985 83.0052,72.1842 C82.3411967,72.4830015 81.7602025,72.8869308 81.2622,73.396 C80.7641975,73.9050692 80.3713348,74.5192631 80.0836,75.2386 C79.7958653,75.9579369 79.652,76.7270626 79.652,77.546 L79.652,86.51 L78.158,86.51 L78.158,63.27 L79.652,63.27 L79.652,73.396 Z M98.172,73.396 C98.4818683,72.8205305 98.8913308,72.3004023 99.4004,71.8356 C99.8430689,71.437198 100.412997,71.0720017 101.1102,70.74 C101.807404,70.4079983 102.653995,70.242 103.65,70.242 C104.557471,70.242 105.404063,70.4079983 106.1898,70.74 C106.975537,71.0720017 107.661664,71.5423303 108.2482,72.151 C108.834736,72.7596697 109.293998,73.4789959 109.626,74.309 C109.958002,75.1390042 110.124,76.051995 110.124,77.048 L110.124,86.51 L108.63,86.51 L108.63,77.048 C108.63,76.251196 108.502735,75.5263366 108.2482,74.8734 C107.993665,74.2204634 107.645069,73.6616023 107.2024,73.1968 C106.759731,72.7319977 106.23407,72.3723346 105.6254,72.1178 C105.01673,71.8632654 104.35827,71.736 103.65,71.736 C102.897463,71.736 102.189203,71.8853985 101.5252,72.1842 C100.861197,72.4830015 100.280203,72.8869308 99.7822,73.396 C99.2841976,73.9050692 98.8913348,74.5192631 98.6036,75.2386 C98.3158653,75.9579369 98.172,76.7270626 98.172,77.546 L98.172,86.51 L96.678,86.51 L96.678,70.574 L98.172,70.574 L98.172,73.396 Z M113.87,78.542 C113.87,77.3910609 114.080265,76.3065384 114.5008,75.2884 C114.921335,74.2702616 115.496796,73.3904704 116.2272,72.649 C116.957604,71.9075296 117.804195,71.3210022 118.767,70.8894 C119.729805,70.4577978 120.753461,70.242 121.838,70.242 C122.922539,70.242 123.946195,70.4577978 124.909,70.8894 C125.871805,71.3210022 126.718396,71.9075296 127.4488,72.649 C128.179204,73.3904704 128.754665,74.2702616 129.1752,75.2884 C129.595735,76.3065384 129.806,77.3910609 129.806,78.542 C129.806,79.7150725 129.595735,80.8051283 129.1752,81.8122 C128.754665,82.8192717 128.179204,83.6935296 127.4488,84.435 C126.718396,85.1764704 125.871805,85.7629978 124.909,86.1946 C123.946195,86.6262022 122.922539,86.842 121.838,86.842 C120.753461,86.842 119.729805,86.6262022 118.767,86.1946 C117.804195,85.7629978 116.957604,85.1764704 116.2272,84.435 C115.496796,83.6935296 114.921335,82.8192717 114.5008,81.8122 C114.080265,80.8051283 113.87,79.7150725 113.87,78.542 Z M128.312,78.542 C128.312,77.5902619 128.140468,76.6994042 127.7974,75.8694 C127.454332,75.0393959 126.984003,74.3200697 126.3864,73.7114 C125.788797,73.1027303 125.097137,72.6213351 124.3114,72.2672 C123.525663,71.9130649 122.701204,71.736 121.838,71.736 C120.974796,71.736 120.150337,71.9130649 119.3646,72.2672 C118.578863,72.6213351 117.887203,73.1027303 117.2896,73.7114 C116.691997,74.3200697 116.221668,75.0393959 115.8786,75.8694 C115.535532,76.6994042 115.364,77.5902619 115.364,78.542 C115.364,79.4937381 115.535532,80.3845959 115.8786,81.2146 C116.221668,82.0446042 116.691997,82.7639303 117.2896,83.3726 C117.887203,83.9812697 118.578863,84.4626649 119.3646,84.8168 C120.150337,85.1709351 120.974796,85.348 121.838,85.348 C122.701204,85.348 123.525663,85.1709351 124.3114,84.8168 C125.097137,84.4626649 125.788797,83.9812697 126.3864,83.3726 C126.984003,82.7639303 127.454332,82.0446042 127.7974,81.2146 C128.140468,80.3845959 128.312,79.4937381 128.312,78.542 Z M135.378,86.51 L133.884,86.51 L133.884,63.27 L135.378,63.27 L135.378,86.51 Z M139.456,78.542 C139.456,77.3910609 139.666265,76.3065384 140.0868,75.2884 C140.507336,74.2702616 141.082796,73.3904704 141.8132,72.649 C142.543604,71.9075296 143.390195,71.3210022 144.353,70.8894 C145.315805,70.4577978 146.339461,70.242 147.424,70.242 C148.508539,70.242 149.532195,70.4577978 150.495,70.8894 C151.457805,71.3210022 152.304396,71.9075296 153.0348,72.649 C153.765204,73.3904704 154.340665,74.2702616 154.7612,75.2884 C155.181736,76.3065384 155.392,77.3910609 155.392,78.542 C155.392,79.7150725 155.181736,80.8051283 154.7612,81.8122 C154.340665,82.8192717 153.765204,83.6935296 153.0348,84.435 C152.304396,85.1764704 151.457805,85.7629978 150.495,86.1946 C149.532195,86.6262022 148.508539,86.842 147.424,86.842 C146.339461,86.842 145.315805,86.6262022 144.353,86.1946 C143.390195,85.7629978 142.543604,85.1764704 141.8132,84.435 C141.082796,83.6935296 140.507336,82.8192717 140.0868,81.8122 C139.666265,80.8051283 139.456,79.7150725 139.456,78.542 Z M153.898,78.542 C153.898,77.5902619 153.726468,76.6994042 153.3834,75.8694 C153.040332,75.0393959 152.570003,74.3200697 151.9724,73.7114 C151.374797,73.1027303 150.683137,72.6213351 149.8974,72.2672 C149.111663,71.9130649 148.287204,71.736 147.424,71.736 C146.560796,71.736 145.736337,71.9130649 144.9506,72.2672 C144.164863,72.6213351 143.473203,73.1027303 142.8756,73.7114 C142.277997,74.3200697 141.807668,75.0393959 141.4646,75.8694 C141.121532,76.6994042 140.95,77.5902619 140.95,78.542 C140.95,79.4937381 141.121532,80.3845959 141.4646,81.2146 C141.807668,82.0446042 142.277997,82.7639303 142.8756,83.3726 C143.473203,83.9812697 144.164863,84.4626649 144.9506,84.8168 C145.736337,85.1709351 146.560796,85.348 147.424,85.348 C148.287204,85.348 149.111663,85.1709351 149.8974,84.8168 C150.683137,84.4626649 151.374797,83.9812697 151.9724,83.3726 C152.570003,82.7639303 153.040332,82.0446042 153.3834,81.2146 C153.726468,80.3845959 153.898,79.4937381 153.898,78.542 Z M159.636,78.21 C159.636,79.1174712 159.796465,79.969596 160.1174,80.7664 C160.438335,81.563204 160.869931,82.2493305 161.4122,82.8248 C161.954469,83.4002695 162.574197,83.8539983 163.2714,84.186 C163.968604,84.5180017 164.693463,84.684 165.446,84.684 C166.198537,84.684 166.92893,84.5180017 167.6372,84.186 C168.34547,83.8539983 168.981797,83.4002695 169.5462,82.8248 C170.110603,82.2493305 170.564332,81.563204 170.9074,80.7664 C171.250468,79.969596 171.422,79.1174712 171.422,78.21 C171.422,77.3025288 171.250468,76.4559373 170.9074,75.6702 C170.564332,74.8844627 170.110603,74.1983363 169.5462,73.6118 C168.981797,73.0252637 168.34547,72.5660017 167.6372,72.234 C166.92893,71.9019983 166.198537,71.736 165.446,71.736 C164.693463,71.736 163.968604,71.9019983 163.2714,72.234 C162.574197,72.5660017 161.954469,73.0252637 161.4122,73.6118 C160.869931,74.1983363 160.438335,74.8844627 160.1174,75.6702 C159.796465,76.4559373 159.636,77.3025288 159.636,78.21 Z M171.422,82.858 C171.045732,83.4777364 170.56987,84.0310642 169.9944,84.518 C169.507464,84.9385354 168.887737,85.3203316 168.1352,85.6634 C167.382663,86.0064684 166.486272,86.178 165.446,86.178 C164.494262,86.178 163.575738,85.9732687 162.6904,85.5638 C161.805062,85.1543313 161.02487,84.5899369 160.3498,83.8706 C159.67473,83.1512631 159.138002,82.3102048 158.7396,81.3474 C158.341198,80.3845952 158.142,79.3388056 158.142,78.21 C158.142,77.0811944 158.341198,76.0354048 158.7396,75.0726 C159.138002,74.1097952 159.67473,73.2687369 160.3498,72.5494 C161.02487,71.8300631 161.805062,71.2656687 162.6904,70.8562 C163.575738,70.4467313 164.494262,70.242 165.446,70.242 C166.486272,70.242 167.382663,70.4135316 168.1352,70.7566 C168.887737,71.0996684 169.507464,71.4814646 169.9944,71.902 C170.56987,72.3889358 171.045732,72.9422636 171.422,73.562 L171.422,70.574 L172.916,70.574 L172.916,85.514 C172.916,86.6428056 172.711269,87.6885952 172.3018,88.6514 C171.892331,89.6142048 171.339004,90.4552631 170.6418,91.1746 C169.944597,91.8939369 169.136738,92.4583313 168.2182,92.8678 C167.299662,93.2772687 166.320272,93.482 165.28,93.482 C164.195461,93.482 163.254804,93.3104684 162.458,92.9674 C161.661196,92.6243316 161.008269,92.2425354 160.4992,91.822 C159.901597,91.3350642 159.392536,90.7817364 158.972,90.162 L159.968,89.166 C160.344269,89.7193361 160.797997,90.195198 161.3292,90.5936 C161.771869,90.9477351 162.319663,91.2686652 162.9726,91.5564 C163.625537,91.8441348 164.394662,91.988 165.28,91.988 C166.098937,91.988 166.884663,91.8220017 167.6372,91.49 C168.389737,91.1579983 169.042664,90.7042695 169.596,90.1288 C170.149336,89.5533305 170.591998,88.867204 170.924,88.0704 C171.256002,87.273596 171.422,86.4214712 171.422,85.514 L171.422,82.858 Z M182.472,86.51 L175.998,70.574 L177.658,70.574 L183.302,84.518 L188.946,70.574 L190.606,70.574 L182.97,89.498 C182.394531,90.9145404 181.76927,91.9326636 181.0942,92.5524 C180.41913,93.1721364 179.495073,93.482 178.322,93.482 C177.985572,93.482 177.691643,93.446587 177.440208,93.3757602 L177.2596,93.316 C177.104666,93.2717331 176.960801,93.2164003 176.828,93.15 L176.828,91.656 C176.916534,91.7002669 177.009985,91.7396149 177.108355,91.7740444 L177.2596,91.822 C177.547335,91.9326672 177.901465,91.988 178.322,91.988 C179.074537,91.988 179.677664,91.7832687 180.1314,91.3738 C180.585136,90.9643313 180.977998,90.3390709 181.31,89.498 L182.472,86.51 Z"/><path fill="#FFFFFF" d="M31.912958,4.04979253 C33.3074173,4.04979253 34.3994638,4.62240664 35.1050938,5.40248963 L35.1050938,4.25726141 L38.0368186,4.25726141 L38.0368186,14.5477178 C38.0368186,17.5352697 36.1299374,19.9419087 32.5093834,19.9419087 C29.7876676,19.9419087 27.7967828,18.5477178 26.9399464,16.8962656 L29.5356568,15.4605809 C30.0900804,16.5643154 31.0813226,17.2614108 32.5093834,17.2614108 C34.0970509,17.2614108 35.1050938,16.033195 35.1050938,14.6556017 L35.1050938,13.659751 C34.3994638,14.4813278 33.2654155,15.0539419 31.8709562,15.0539419 C29.5944593,15.0539419 26.7047364,13.2780083 26.7047364,9.55186722 C26.7047364,5.80912863 29.493655,4.04979253 31.912958,4.04979253 Z M7.66112601,0.0414937759 C10.3912422,0.0414937759 12.8273458,1.40248963 14.1882038,3.6846473 L14.1882038,3.6846473 L14.2302055,3.7593361 L11.6176944,5.41078838 L11.5756926,5.32780083 C10.7188561,3.75103734 9.4,2.94605809 7.66952636,2.94605809 C4.99821269,2.94605809 2.9821269,4.94605809 2.9821269,7.593361 C2.9821269,10.1742739 5.00661305,12.1991701 7.6023235,12.1991701 C9.39159964,12.1991701 10.8868633,11.2282158 11.6932976,9.54356846 L11.6932976,9.54356846 L11.7352994,9.46058091 L14.4486148,10.879668 L14.406613,10.9543568 C13.0373548,13.5767635 10.5172475,15.1452282 7.66112601,15.1452282 C3.23413762,15.1452282 0.0168007149,11.966805 0.0168007149,7.593361 C0.0168007149,3.28630705 3.30134048,0.0414937759 7.66112601,0.0414937759 Z M20.4128686,4.04979253 C23.4957998,4.04979253 25.9655049,6.50622407 25.9655049,9.55186722 C25.9655049,12.5975104 23.5042002,15.0539419 20.4128686,15.0539419 C17.3299374,15.0539419 14.8602324,12.5975104 14.8602324,9.55186722 C14.8602324,6.50622407 17.3215371,4.04979253 20.4128686,4.04979253 Z M69.4709562,4.04979253 C70.8654155,4.04979253 71.957462,4.5560166 72.663092,5.30290456 L72.663092,4.26556017 L75.5948168,4.26556017 L75.5948168,14.846473 L72.663092,14.846473 L72.663092,13.659751 C71.957462,14.4813278 70.8234138,15.0539419 69.4289544,15.0539419 C67.1524576,15.0539419 64.2627346,13.2780083 64.2627346,9.55186722 C64.2627346,5.80912863 67.0516533,4.04979253 69.4709562,4.04979253 Z M53.3002681,4.29045643 L53.3002681,14.8713693 L50.3685433,14.8713693 L50.3685433,4.29045643 L53.3002681,4.29045643 Z M45.0847185,4.05809129 C47.6132261,4.05809129 49.1336908,5.66804979 49.1336908,8.39834025 L49.1336908,14.8547718 L46.1515639,14.8547718 L46.1515639,8.78008299 C46.1515639,7.36099585 45.4879357,6.53941909 44.1774799,6.53941909 C43.0602324,6.53941909 42.1445934,7.30290456 42.1445934,9.07883817 L42.1445934,14.8547718 L39.2128686,14.8547718 L39.2128686,4.26556017 L42.1277927,4.26556017 L42.1277927,5.45228216 C42.816622,4.58091286 43.8666667,4.05809129 45.0847185,4.05809129 Z M82.6511171,4.05809129 C85.1796247,4.05809129 86.7000894,5.66804979 86.7000894,8.39834025 L86.7000894,14.8547718 L83.7179625,14.8547718 L83.7179625,8.78008299 C83.7179625,7.36099585 83.0543342,6.53941909 81.7438785,6.53941909 C80.6266309,6.53941909 79.710992,7.30290456 79.710992,9.07883817 L79.710992,14.8547718 L76.7792672,14.8547718 L76.7792672,4.26556017 L79.6941912,4.26556017 L79.6941912,5.45228216 C80.3830206,4.58091286 81.4330652,4.05809129 82.6511171,4.05809129 Z M63.9855228,4.26556017 L63.9855228,6.87136929 L58.3488829,12.2821577 L64.0947274,12.2821577 L64.0947274,14.846473 L54.4091153,14.846473 L54.4091153,12.2655602 L60.0457551,6.82987552 L54.4931189,6.82987552 L54.4931189,4.26556017 L63.9855228,4.26556017 Z M91.9167113,0.763485477 L91.9167113,4.25726141 L93.9327971,4.25726141 L93.9327971,6.85477178 L91.9167113,6.85477178 L91.9167113,10.2240664 C91.9167113,11.8755187 92.1351206,12.1327801 93.9327971,12.1327801 L93.9327971,12.1327801 L93.9327971,14.8381743 L93.5043789,14.8381743 C90.1022341,14.8381743 88.9849866,13.7012448 88.9849866,10.2489627 L88.9849866,10.2489627 L88.9849866,6.86307054 L87.162109,6.86307054 L87.162109,4.25726141 L88.9849866,4.25726141 L88.9849866,0.763485477 L91.9167113,0.763485477 Z M70.0085791,6.69709544 C68.3789097,6.69709544 67.1356568,7.90041494 67.1356568,9.53526971 C67.1356568,11.1701245 68.3789097,12.3900415 70.0085791,12.3900415 C71.5878463,12.3900415 72.7470956,11.0954357 72.7470956,9.53526971 C72.7470956,7.96680498 71.5878463,6.69709544 70.0085791,6.69709544 Z M32.4505809,6.69709544 C30.8209115,6.69709544 29.5776586,7.90041494 29.5776586,9.53526971 C29.5776586,11.1701245 30.8209115,12.3900415 32.4505809,12.3900415 C34.0298481,12.3900415 35.1890974,11.0954357 35.1890974,9.53526971 C35.1890974,7.96680498 34.0298481,6.69709544 32.4505809,6.69709544 Z M20.4128686,6.7966805 C18.8924039,6.7966805 17.7331546,8.04149378 17.7331546,9.55186722 C17.7331546,11.0539419 18.8924039,12.3070539 20.4128686,12.3070539 C21.9165326,12.3070539 23.1093834,11.0539419 23.1093834,9.55186722 C23.1093834,8.04979253 21.9081323,6.7966805 20.4128686,6.7966805 Z M53.3422699,0.780082988 L53.3422699,3.41078838 L50.4105451,3.41078838 L50.4105451,0.780082988 L53.3422699,0.780082988 Z"/></g></svg>