<svg xmlns="http://www.w3.org/2000/svg" width="218" height="59" viewBox="0 0 218 59"><g fill="none" fill-rule="evenodd"><path fill="#0499EE" d="M1.652,28.2658203 L8.458,28.2658203 C15.43,28.2658203 20.576,33.4118203 20.576,39.8858203 C20.576,46.3598203 15.43,51.5058203 8.458,51.5058203 L1.652,51.5058203 L1.652,28.2658203 Z M8.458,29.9258203 L3.312,29.9258203 L3.312,49.8458203 L8.458,49.8458203 C14.6,49.8458203 18.916,45.5298203 18.916,39.8858203 C18.916,34.2418203 14.6,29.9258203 8.458,29.9258203 Z M24.82,51.5058203 L24.82,35.5698203 L26.314,35.5698203 L26.314,51.5058203 L24.82,51.5058203 Z M24.488,29.9258203 C24.488,29.2618203 24.986,28.7638203 25.65,28.7638203 C26.314,28.7638203 26.812,29.2618203 26.812,29.9258203 C26.812,30.5898203 26.314,31.0878203 25.65,31.0878203 C24.986,31.0878203 24.488,30.5898203 24.488,29.9258203 Z M31.886,43.2058203 C31.886,46.8578203 34.708,49.6798203 37.696,49.6798203 C40.684,49.6798203 43.672,46.8578203 43.672,43.2058203 C43.672,39.5538203 40.684,36.7318203 37.696,36.7318203 C34.708,36.7318203 31.886,39.5538203 31.886,43.2058203 Z M43.672,50.5098203 L43.672,47.8538203 C43.672,47.8538203 41.846,51.1738203 37.696,51.1738203 C33.878,51.1738203 30.392,47.6878203 30.392,43.2058203 C30.392,38.7238203 33.878,35.2378203 37.696,35.2378203 C41.846,35.2378203 43.672,38.5578203 43.672,38.5578203 L43.672,35.5698203 L45.166,35.5698203 L45.166,50.5098203 C45.166,54.9918203 41.68,58.4778203 37.53,58.4778203 C33.214,58.4778203 31.222,55.1578203 31.222,55.1578203 L32.218,54.1618203 C32.218,54.1618203 34.044,56.9838203 37.53,56.9838203 C40.85,56.9838203 43.672,54.1618203 43.672,50.5098203 Z M50.572,51.5058203 L50.572,35.5698203 L52.066,35.5698203 L52.066,51.5058203 L50.572,51.5058203 Z M50.24,29.9258203 C50.24,29.2618203 50.738,28.7638203 51.402,28.7638203 C52.066,28.7638203 52.564,29.2618203 52.564,29.9258203 C52.564,30.5898203 52.066,31.0878203 51.402,31.0878203 C50.738,31.0878203 50.24,30.5898203 50.24,29.9258203 Z M58.8,34.2418203 L58.8,30.2578203 L60.128,30.2578203 L60.128,35.5698203 L63.78,35.5698203 L63.78,37.0638203 L60.128,37.0638203 L60.128,47.5218203 C60.128,49.3478203 61.124,50.3438203 62.618,50.3438203 C63.78,50.3438203 64.776,49.8458203 64.776,49.8458203 L64.776,51.3398203 C64.776,51.3398203 63.78,51.8378203 62.618,51.8378203 C60.128,51.8378203 58.634,50.3438203 58.634,47.5218203 L58.634,37.0638203 L55.48,37.0638203 L55.48,35.5698203 L57.638,35.5698203 C58.302,35.5698203 58.8,35.0718203 58.8,34.2418203 Z M71.676,42.5418203 L77.984,41.5458203 C77.984,38.7902203 76.0584,36.7318203 73.502,36.7318203 C70.5804,36.7318203 68.854,39.0558203 68.854,39.0558203 L67.858,38.0598203 C67.858,38.0598203 69.9164,35.2378203 73.502,35.2378203 C76.9216,35.2378203 79.478,37.9934203 79.478,41.5458203 L79.478,51.5058203 L77.984,51.5058203 L77.984,48.8498203 C77.984,48.8498203 76.158,51.8378203 72.174,51.8378203 C69.02,51.8378203 66.862,49.6798203 66.862,47.3558203 C66.862,44.8658203 68.688,43.0066203 71.676,42.5418203 Z M72.174,50.3438203 C75.494,50.3438203 77.984,47.8538203 77.984,44.5338203 L77.984,43.0398203 L72.008,44.0358203 C69.518,44.4342203 68.356,45.6958203 68.356,47.3558203 C68.356,48.8498203 69.85,50.3438203 72.174,50.3438203 Z M86.046,28.2658203 L86.046,51.5058203 L84.552,51.5058203 L84.552,28.2658203 L86.046,28.2658203 Z M109.806,39.0558203 C109.806,39.0558203 113.956,40.3838203 113.956,45.0318203 C113.956,48.6838203 111.134,51.5058203 106.818,51.5058203 L97.8540001,51.5058203 L97.8540001,28.2658203 L106.486,28.2658203 C110.304,28.2658203 112.794,30.7558203 112.794,34.0758203 C112.794,37.8938203 109.806,39.0558203 109.806,39.0558203 Z M99.5140001,49.8458203 L106.818,49.8458203 C110.304,49.8458203 112.296,47.8538203 112.296,45.0318203 C112.296,42.0438203 110.304,40.0518203 106.818,40.0518203 L99.5140001,40.0518203 L99.5140001,49.8458203 Z M106.486,29.9258203 L99.5140001,29.9258203 L99.5140001,38.3918203 L106.486,38.3918203 C109.474,38.3918203 111.134,36.7318203 111.134,34.0758203 C111.134,31.5858203 109.474,29.9258203 106.486,29.9258203 Z M130.318,51.5058203 L130.318,48.6838203 C130.318,48.6838203 128.824,51.8378203 124.84,51.8378203 C121.188,51.8378203 118.366,49.0158203 118.366,45.0318203 L118.366,35.5698203 L119.86,35.5698203 L119.86,45.0318203 C119.86,48.1858203 122.018,50.3438203 124.84,50.3438203 C127.828,50.3438203 130.318,47.8538203 130.318,44.5338203 L130.318,35.5698203 L131.812,35.5698203 L131.812,51.5058203 L130.318,51.5058203 Z M146.182,37.5618203 L145.02,38.7238203 C145.02,38.7238203 143.692,36.7318203 141.202,36.7318203 C138.878,36.7318203 137.55,38.0930203 137.55,39.5538203 C137.55,43.3718203 146.68,41.5458203 146.68,47.0238203 C146.68,49.6798203 144.522,51.8378203 141.036,51.8378203 C137.384,51.8378203 135.392,49.1818203 135.392,49.1818203 L136.554,48.0198203 C136.554,48.0198203 138.214,50.3438203 141.036,50.3438203 C143.692,50.3438203 145.186,48.8498203 145.186,47.0238203 C145.186,43.0398203 136.056,44.8658203 136.056,39.5538203 C136.056,37.3958203 138.214,35.2378203 141.202,35.2378203 C144.356,35.2378203 146.182,37.5618203 146.182,37.5618203 Z M150.758,51.5058203 L150.758,35.5698203 L152.252,35.5698203 L152.252,51.5058203 L150.758,51.5058203 Z M150.426,29.9258203 C150.426,29.2618203 150.924,28.7638203 151.588,28.7638203 C152.252,28.7638203 152.75,29.2618203 152.75,29.9258203 C152.75,30.5898203 152.252,31.0878203 151.588,31.0878203 C150.924,31.0878203 150.426,30.5898203 150.426,29.9258203 Z M159.152,35.5698203 L159.152,38.3918203 C159.152,38.3918203 160.646,35.2378203 164.63,35.2378203 C168.282,35.2378203 171.104,38.0598203 171.104,42.0438203 L171.104,51.5058203 L169.61,51.5058203 L169.61,42.0438203 C169.61,38.8898203 167.452,36.7318203 164.63,36.7318203 C161.642,36.7318203 159.152,39.2218203 159.152,42.5418203 L159.152,51.5058203 L157.658,51.5058203 L157.658,35.5698203 L159.152,35.5698203 Z M189.79,44.2018203 L176.344,44.2018203 C176.51,47.5218203 179.332,50.3438203 182.652,50.3438203 C186.138,50.3438203 187.964,47.5550203 187.964,47.5550203 L188.96,48.5178203 C188.96,48.5178203 186.802,51.8378203 182.652,51.8378203 C178.502,51.8378203 174.85,48.1858203 174.85,43.5378203 C174.85,38.8898203 178.502,35.2378203 182.486,35.2378203 C186.47,35.2378203 189.79,38.5578203 189.79,43.5378203 L189.79,44.2018203 Z M182.486,36.7318203 C179.332,36.7318203 176.51,39.5538203 176.344,42.7078203 L188.296,42.7078203 C188.13,39.2218203 185.64,36.7318203 182.486,36.7318203 Z M202.998,37.5618203 L201.836,38.7238203 C201.836,38.7238203 200.508,36.7318203 198.018,36.7318203 C195.694,36.7318203 194.366,38.0930203 194.366,39.5538203 C194.366,43.3718203 203.496,41.5458203 203.496,47.0238203 C203.496,49.6798203 201.338,51.8378203 197.852,51.8378203 C194.2,51.8378203 192.208,49.1818203 192.208,49.1818203 L193.37,48.0198203 C193.37,48.0198203 195.03,50.3438203 197.852,50.3438203 C200.508,50.3438203 202.002,48.8498203 202.002,47.0238203 C202.002,43.0398203 192.872,44.8658203 192.872,39.5538203 C192.872,37.3958203 195.03,35.2378203 198.018,35.2378203 C201.172,35.2378203 202.998,37.5618203 202.998,37.5618203 Z M216.704,37.5618203 L215.542,38.7238203 C215.542,38.7238203 214.214,36.7318203 211.724,36.7318203 C209.4,36.7318203 208.072,38.0930203 208.072,39.5538203 C208.072,43.3718203 217.202,41.5458203 217.202,47.0238203 C217.202,49.6798203 215.044,51.8378203 211.558,51.8378203 C207.906,51.8378203 205.914,49.1818203 205.914,49.1818203 L207.076,48.0198203 C207.076,48.0198203 208.736,50.3438203 211.558,50.3438203 C214.214,50.3438203 215.708,48.8498203 215.708,47.0238203 C215.708,43.0398203 206.578,44.8658203 206.578,39.5538203 C206.578,37.3958203 208.736,35.2378203 211.724,35.2378203 C214.878,35.2378203 216.704,37.5618203 216.704,37.5618203 Z"/><path fill="#FFFFFF" d="M31.912958,4.04979253 C33.3074173,4.04979253 34.3994638,4.62240664 35.1050938,5.40248963 L35.1050938,4.25726141 L38.0368186,4.25726141 L38.0368186,14.5477178 C38.0368186,17.5352697 36.1299374,19.9419087 32.5093834,19.9419087 C29.7876676,19.9419087 27.7967828,18.5477178 26.9399464,16.8962656 L29.5356568,15.4605809 C30.0900804,16.5643154 31.0813226,17.2614108 32.5093834,17.2614108 C34.0970509,17.2614108 35.1050938,16.033195 35.1050938,14.6556017 L35.1050938,13.659751 C34.3994638,14.4813278 33.2654155,15.0539419 31.8709562,15.0539419 C29.5944593,15.0539419 26.7047364,13.2780083 26.7047364,9.55186722 C26.7047364,5.80912863 29.493655,4.04979253 31.912958,4.04979253 Z M7.66112601,0.0414937759 C10.3912422,0.0414937759 12.8273458,1.40248963 14.1882038,3.6846473 L14.1882038,3.6846473 L14.2302055,3.7593361 L11.6176944,5.41078838 L11.5756926,5.32780083 C10.7188561,3.75103734 9.4,2.94605809 7.66952636,2.94605809 C4.99821269,2.94605809 2.9821269,4.94605809 2.9821269,7.593361 C2.9821269,10.1742739 5.00661305,12.1991701 7.6023235,12.1991701 C9.39159964,12.1991701 10.8868633,11.2282158 11.6932976,9.54356846 L11.6932976,9.54356846 L11.7352994,9.46058091 L14.4486148,10.879668 L14.406613,10.9543568 C13.0373548,13.5767635 10.5172475,15.1452282 7.66112601,15.1452282 C3.23413762,15.1452282 0.0168007149,11.966805 0.0168007149,7.593361 C0.0168007149,3.28630705 3.30134048,0.0414937759 7.66112601,0.0414937759 Z M20.4128686,4.04979253 C23.4957998,4.04979253 25.9655049,6.50622407 25.9655049,9.55186722 C25.9655049,12.5975104 23.5042002,15.0539419 20.4128686,15.0539419 C17.3299374,15.0539419 14.8602324,12.5975104 14.8602324,9.55186722 C14.8602324,6.50622407 17.3215371,4.04979253 20.4128686,4.04979253 Z M69.4709562,4.04979253 C70.8654155,4.04979253 71.957462,4.5560166 72.663092,5.30290456 L72.663092,4.26556017 L75.5948168,4.26556017 L75.5948168,14.846473 L72.663092,14.846473 L72.663092,13.659751 C71.957462,14.4813278 70.8234138,15.0539419 69.4289544,15.0539419 C67.1524576,15.0539419 64.2627346,13.2780083 64.2627346,9.55186722 C64.2627346,5.80912863 67.0516533,4.04979253 69.4709562,4.04979253 Z M53.3002681,4.29045643 L53.3002681,14.8713693 L50.3685433,14.8713693 L50.3685433,4.29045643 L53.3002681,4.29045643 Z M45.0847185,4.05809129 C47.6132261,4.05809129 49.1336908,5.66804979 49.1336908,8.39834025 L49.1336908,14.8547718 L46.1515639,14.8547718 L46.1515639,8.78008299 C46.1515639,7.36099585 45.4879357,6.53941909 44.1774799,6.53941909 C43.0602324,6.53941909 42.1445934,7.30290456 42.1445934,9.07883817 L42.1445934,14.8547718 L39.2128686,14.8547718 L39.2128686,4.26556017 L42.1277927,4.26556017 L42.1277927,5.45228216 C42.816622,4.58091286 43.8666667,4.05809129 45.0847185,4.05809129 Z M82.6511171,4.05809129 C85.1796247,4.05809129 86.7000894,5.66804979 86.7000894,8.39834025 L86.7000894,14.8547718 L83.7179625,14.8547718 L83.7179625,8.78008299 C83.7179625,7.36099585 83.0543342,6.53941909 81.7438785,6.53941909 C80.6266309,6.53941909 79.710992,7.30290456 79.710992,9.07883817 L79.710992,14.8547718 L76.7792672,14.8547718 L76.7792672,4.26556017 L79.6941912,4.26556017 L79.6941912,5.45228216 C80.3830206,4.58091286 81.4330652,4.05809129 82.6511171,4.05809129 Z M63.9855228,4.26556017 L63.9855228,6.87136929 L58.3488829,12.2821577 L64.0947274,12.2821577 L64.0947274,14.846473 L54.4091153,14.846473 L54.4091153,12.2655602 L60.0457551,6.82987552 L54.4931189,6.82987552 L54.4931189,4.26556017 L63.9855228,4.26556017 Z M91.9167113,0.763485477 L91.9167113,4.25726141 L93.9327971,4.25726141 L93.9327971,6.85477178 L91.9167113,6.85477178 L91.9167113,10.2240664 C91.9167113,11.8755187 92.1351206,12.1327801 93.9327971,12.1327801 L93.9327971,12.1327801 L93.9327971,14.8381743 L93.5043789,14.8381743 C90.1022341,14.8381743 88.9849866,13.7012448 88.9849866,10.2489627 L88.9849866,10.2489627 L88.9849866,6.86307054 L87.162109,6.86307054 L87.162109,4.25726141 L88.9849866,4.25726141 L88.9849866,0.763485477 L91.9167113,0.763485477 Z M70.0085791,6.69709544 C68.3789097,6.69709544 67.1356568,7.90041494 67.1356568,9.53526971 C67.1356568,11.1701245 68.3789097,12.3900415 70.0085791,12.3900415 C71.5878463,12.3900415 72.7470956,11.0954357 72.7470956,9.53526971 C72.7470956,7.96680498 71.5878463,6.69709544 70.0085791,6.69709544 Z M32.4505809,6.69709544 C30.8209115,6.69709544 29.5776586,7.90041494 29.5776586,9.53526971 C29.5776586,11.1701245 30.8209115,12.3900415 32.4505809,12.3900415 C34.0298481,12.3900415 35.1890974,11.0954357 35.1890974,9.53526971 C35.1890974,7.96680498 34.0298481,6.69709544 32.4505809,6.69709544 Z M20.4128686,6.7966805 C18.8924039,6.7966805 17.7331546,8.04149378 17.7331546,9.55186722 C17.7331546,11.0539419 18.8924039,12.3070539 20.4128686,12.3070539 C21.9165326,12.3070539 23.1093834,11.0539419 23.1093834,9.55186722 C23.1093834,8.04979253 21.9081323,6.7966805 20.4128686,6.7966805 Z M53.3422699,0.780082988 L53.3422699,3.41078838 L50.4105451,3.41078838 L50.4105451,0.780082988 L53.3422699,0.780082988 Z"/></g></svg>